0
SECTION
2
HEADER
9
$INSUNITS
70
4
9
$ACADVER
1
AC1014
9
$HANDSEED
5
FFFF
0
ENDSEC
0
SECTION
2
TABLES
0
TABLE
2
VPORT
5
8
100
AcDbSymbolTable
0
ENDTAB
0
TABLE
2
LTYPE
5
5
100
AcDbSymbolTable
0
LTYPE
5
14
100
AcDbSymbolTableRecord
100
AcDbLinetypeTableRecord
2
BYBLOCK
70
0
0
LTYPE
5
15
100
AcDbSymbolTableRecord
100
AcDbLinetypeTableRecord
2
BYLAYER
70
0
0
ENDTAB
0
TABLE
2
LAYER
5
2
100
AcDbSymbolTable
70
2
0
LAYER
5
50
100
AcDbSymbolTableRecord
100
AcDbLayerTableRecord
2
0
70
0
6
CONTINUOUS
0
ENDTAB
0
TABLE
2
STYLE
5
3
100
AcDbSymbolTable
70
1
0
STYLE
5
11
100
AcDbSymbolTableRecord
100
AcDbTextStyleTableRecord
2
STANDARD
70
0
0
ENDTAB
0
TABLE
2
VIEW
5
6
100
AcDbSymbolTable
70
0
0
ENDTAB
0
TABLE
2
UCS
5
7
100
AcDbSymbolTable
70
0
0
ENDTAB
0
TABLE
2
APPID
5
9
100
AcDbSymbolTable
70
2
0
APPID
5
12
100
AcDbSymbolTableRecord
100
AcDbRegAppTableRecord
2
ACAD
70
0
0
ENDTAB
0
TABLE
2
DIMSTYLE
5
A
100
AcDbSymbolTable
70
1
0
ENDTAB
0
TABLE
2
BLOCK_RECORD
5
1
100
AcDbSymbolTable
70
1
0
BLOCK_RECORD
5
1F
100
AcDbSymbolTableRecord
100
AcDbBlockTableRecord
2
*MODEL_SPACE
0
BLOCK_RECORD
5
1B
100
AcDbSymbolTableRecord
100
AcDbBlockTableRecord
2
*PAPER_SPACE
0
ENDTAB
0
ENDSEC
0
SECTION
2
BLOCKS
0
BLOCK
5
20
100
AcDbEntity
100
AcDbBlockBegin
2
*MODEL_SPACE
0
ENDBLK
5
21
100
AcDbEntity
100
AcDbBlockEnd
0
BLOCK
5
1C
100
AcDbEntity
100
AcDbBlockBegin
2
*PAPER_SPACE
0
ENDBLK
5
1D
100
AcDbEntity
100
AcDbBlockEnd
0
ENDSEC
0
SECTION
2
ENTITIES
0
SPLINE
5
100
100
AcDbEntity
8
0
100
AcDbSpline
70
1064
71
3
72
14
73
10
74
0
42
0.000000001
43
0.0000000001
44
0.0000000001
40
-1.6311747949666935
40
-1.6311747949666935
40
-1.6311747949666935
40
-1.6311747949666935
40
-1.2919279575907305
40
-1.2919279575907305
40
-0.8596775501076237
40
-0.8596775501076237
40
-0.4821163093859277
40
-0.4821163093859277
40
-0.3005375545779474
40
-0.3005375545779474
40
-0.3005375545779474
40
-0.3005375545779474
10
10.160346710658686
20
-12.692356241736347
30
0
10
10.063003230650924
20
-9.6223071866692589
30
-2.2204460492503131e-15
10
9.8621336115358247
20
-6.8289374903450737
30
-2.2204460492503131e-15
10
9.0298892558502963
20
-1.0899258679605679
30
-2.2204460492503131e-15
10
8.3521315245652232
20
1.2980955965382532
30
0
10
6.7684765692969551
20
4.7085883935735087
30
0
10
5.9051421427717976
20
5.8595948304664738
30
0
10
4.4913217137620407
20
7.1782321734780172
30
0
10
4.0101077855852321
20
7.5470016002031945
30
0
10
3.5101201583249257
20
7.8752423169392358
30
0
0
SPLINE
5
101
100
AcDbEntity
8
0
100
AcDbSpline
70
1064
71
3
72
12
73
8
74
0
42
0.000000001
43
0.0000000001
44
0.0000000001
40
-2.8125869742532119
40
-2.8125869742532119
40
-2.8125869742532119
40
-2.8125869742532119
40
-2.6228018442329883
40
-2.6228018442329883
40
-2.1387520688388886
40
-2.1387520688388886
40
-1.6311747949678261
40
-1.6311747949678261
40
-1.6311747949678261
40
-1.6311747949678261
10
10.477876371434011
20
-46.588088057118142
30
0
10
10.361910223828826
20
-45.329682227644668
30
0
10
10.260364759478268
20
-43.939232062478268
30
0
10
9.9997463332192673
20
-38.081333910099509
30
0
10
10.063811640124925
20
-33.935476213255548
30
0
10
10.235707729394704
20
-22.497955633827154
30
0
10
10.303915269961262
20
-17.285792620373609
30
0
10
10.160346710659649
20
-12.692356241767095
30
0
0
SPLINE
5
102
100
AcDbEntity
8
0
100
AcDbSpline
70
1064
71
3
72
14
73
10
74
0
42
0.000000001
43
0.0000000001
44
0.0000000001
40
0
40
0
40
0
40
0
40
0.16151538765220044
40
0.16151538765220044
40
0.32087911981244344
40
0.32087911981244344
40
0.45690406284554963
40
0.45690406284554963
40
0.58129530168825494
40
0.58129530168825494
40
0.58129530168825494
40
0.58129530168825494
10
14.430150771665479
20
-50.10183131761093
30
0
10
13.891772355164481
20
-50.09924565936798
30
0
10
13.358021284193075
20
-49.98972755062195
30
0
10
12.372775677232642
20
-49.573416056482465
30
2.2204460492503131e-15
10
11.927887656170828
20
-49.272484698568405
30
0
10
11.239185134824513
20
-48.569465385230487
30
0
10
10.980208641942244
20
-48.193418922964241
30
0
10
10.623182614659834
20
-47.403066259046454
30
0
10
10.515879624607443
20
-47.000480089793513
30
0
10
10.477876371434007
20
-46.588088057118135
30
0
0
SPLINE
5
103
100
AcDbEntity
8
0
100
AcDbSpline
70
1064
71
3
72
14
73
10
74
0
42
0.000000001
43
0.0000000001
44
0.0000000001
40
-2.694604941588528
40
-2.694604941588528
40
-2.694604941588528
40
-2.694604941588528
40
-2.64306856856581
40
-2.64306856856581
40
-2.1928101390468946
40
-2.1928101390468946
40
-1.140498062506222
40
-1.140498062506222
40
-0.37019614698769243
40
-0.37019614698769243
40
-0.37019614698769243
40
-0.37019614698769243
10
39.894530933117821
20
-50.283389996710675
30
0
10
39.703830124781234
20
-50.289014069493938
30
0
10
39.513125161083359
20
-50.294496140419653
30
0
10
37.656243038585338
20
-50.346382532252463
30
0
10
36.067153528973471
20
-50.378808344099909
30
0
10
30.607517561517312
20
-50.451577579586399
30
0
10
25.928731119048418
20
-50.452514370398887
30
0
10
19.229005045767348
20
-50.257053297598603
30
0
10
16.84720396619683
20
-50.113439646111011
30
-2.2204460492503131e-15
10
14.430150771665478
20
-50.101831317610923
30
0
0
SPLINE
5
104
100
AcDbEntity
8
0
100
AcDbSpline
70
1064
71
3
72
14
73
10
74
0
42
0.000000001
43
0.0000000001
44
0.0000000001
40
0
40
0
40
0
40
0
40
0.15832452477850709
40
0.15832452477850709
40
0.31592224417207582
40
0.31592224417207582
40
0.45577288015224443
40
0.45577288015224443
40
0.58628381765078563
40
0.58628381765078563
40
0.58628381765078563
40
0.58628381765078563
10
43.663108698562169
20
-46.537261742772003
30
0
10
43.637520805044041
20
-47.064389478923502
30
2.2204460492503131e-15
10
43.508504294650834
20
-47.581631301854586
30
-2.2204460492503131e-15
10
43.056859970062277
20
-48.532674458681846
30
0
10
42.739532284705454
20
-48.957494035766217
30
0
10
41.999383688166517
20
-49.616488232647846
30
2.2204460492503131e-15
10
41.598770880950696
20
-49.861092491653608
30
0
10
40.758142651714053
20
-50.184410798348509
30
0
10
40.329122366452388
20
-50.270573198117233
30
0
10
39.894530933117828
20
-50.283389996710675
30
0
0
SPLINE
5
105
100
AcDbEntity
8
0
100
AcDbSpline
70
1064
71
3
72
14
73
10
74
0
42
0.000000001
43
0.0000000001
44
0.0000000001
40
-3.5149144082949624
40
-3.5149144082949624
40
-3.5149144082949624
40
-3.5149144082949624
40
-3.4032705223302151
40
-3.4032705223302151
40
-3.2390832773124236
40
-3.2390832773124236
40
-1.3353957859614225
40
-1.3353957859614225
40
-0.38159901829741416
40
-0.38159901829741416
40
-0.38159901829741416
40
-0.38159901829741416
10
43.762783372907556
20
8.9918105275790268
30
0
10
43.759908317972801
20
7.3516705401780111
30
0
10
43.754458397364964
20
6.5277552018009777
30
2.2204460492503131e-15
10
43.754849602943587
20
3.2608369466552487
30
0
10
43.774085344434077
20
0.12908920493332882
30
0
10
43.852496170743251
20
-12.341468992697946
30
0
10
44.002172527436514
20
-26.403574879904372
30
2.2204460492503131e-15
10
43.893327083257333
20
-40.553744307765037
30
0
10
43.806833258850297
20
-43.576439585201399
30
0
10
43.663108698562169
20
-46.537261742772017
30
0
0
SPLINE
5
106
100
AcDbEntity
8
0
100
AcDbSpline
70
1064
71
3
72
10
73
6
74
0
42
0.000000001
43
0.0000000001
44
0.0000000001
40
-2.1568339841235482
40
-2.1568339841235482
40
-2.1568339841235482
40
-2.1568339841235482
40
-1.1060851530979854
40
-1.1060851530979854
40
0
40
0
40
0
40
0
10
44.323324685067014
20
49.581535129512069
30
0
10
44.177697535480469
20
45.11508797331237
30
2.2204460492503131e-15
10
43.962474894930914
20
38.115057027519569
30
2.2204460492503131e-15
10
43.767901882276767
20
23.459054215710708
30
0
10
43.769246338907088
20
12.678755373337927
30
0
10
43.762783372907549
20
8.9918105275790179
30
0
0
SPLINE
5
107
100
AcDbEntity
8
0
100
AcDbSpline
70
1064
71
3
72
14
73
10
74
0
42
0.000000001
43
0.0000000001
44
0.0000000001
40
0
40
0
40
0
40
0
40
0.1444844213633287
40
0.1444844213633287
40
0.29009097173710185
40
0.29009097173710185
40
0.42225563007532152
40
0.42225563007532152
40
0.54551834713453318
40
0.54551834713453318
40
0.54551834713453318
40
0.54551834713453318
10
41.112517273748409
20
53.356847533690477
30
0
10
41.590518049843027
20
53.297957689116025
30
0
10
42.051930728832332
20
53.144867203163898
30
0
10
42.892177964126759
20
52.666260445162514
30
0
10
43.261687577898442
20
52.344358564484239
30
-2.2204460492503131e-15
10
43.826940525032313
20
51.610874452579509
30
-2.2204460492503131e-15
10
44.030952618579136
20
51.216328236854935
30
2.2204460492503131e-15
10
44.281867793819856
20
50.402531957886268
30
-2.2204460492503131e-15
10
44.336717376023472
20
49.992294707009748
30
0
10
44.323324685067014
20
49.581535129512069
30
0
0
SPLINE
5
108
100
AcDbEntity
8
0
100
AcDbSpline
70
1064
71
3
72
14
73
10
74
0
42
0.000000001
43
0.0000000001
44
0.0000000001
40
-7.1163541597298279
40
-7.1163541597298279
40
-7.1163541597298279
40
-7.1163541597298279
40
-4.7603951289756985
40
-4.7603951289756985
40
-2.1083916747794449
40
-2.1083916747794449
40
-1.4205849678661193
40
-1.4205849678661193
40
-0.3633710562066102
40
-0.3633710562066102
40
-0.3633710562066102
40
-0.3633710562066102
10
-11.700148231286869
20
53.119603635240196
30
0
10
-6.2243818986534984
20
53.421335896382956
30
2.2204460492503131e-15
10
0.77210990272647573
20
53.78945604981665
30
0
10
11.522064968425191
20
54.148161519692152
30
0
10
14.462251170685613
20
54.158224407841765
30
0
10
23.315268099556398
20
54.158072107481779
30
0
10
27.792759147708431
20
54.157433665519157
30
0
10
35.345244026237687
20
53.981915427587516
30
0
10
38.078369224902374
20
53.730655518841402
30
0
10
41.112517273748409
20
53.35684753369047
30
0
0
SPLINE
5
109
100
AcDbEntity
8
0
100
AcDbSpline
70
1064
71
3
72
14
73
10
74
0
42
0.000000001
43
0.0000000001
44
0.0000000001
40
0
40
0
40
0
40
0
40
0.15705049557251499
40
0.15705049557251499
40
0.3142051256172031
40
0.3142051256172031
40
0.46446442920924463
40
0.46446442920924463
40
0.59210597193871584
40
0.59210597193871584
40
0.59210597193871584
40
0.59210597193871584
10
-15.401005735109798
20
49.24245322889513
30
0
10
-15.394183261101922
20
49.765910422368691
30
2.2204460492503131e-15
10
-15.28432611625194
20
50.282925756660774
30
-2.2204460492503131e-15
10
-14.86891472470977
20
51.244182338828786
30
2.2204460492503131e-15
10
-14.567452965465185
20
51.678549059483068
30
0
10
-13.827507970487503
20
52.387009116691843
30
2.2204460492503131e-15
10
-13.402820483105977
20
52.660380554563496
30
0
10
-12.54286284994401
20
53.003994600577649
30
0
10
-12.124875856560049
20
53.096199782891802
30
0
10
-11.700148231286864
20
53.119603635240196
30
0
0
SPLINE
5
110
100
AcDbEntity
8
0
100
AcDbSpline
70
1064
71
3
72
10
73
6
74
0
42
0.000000001
43
0.0000000001
44
0.0000000001
40
-5.7633713120299035
40
-5.7633713120299035
40
-5.7633713120299035
40
-5.7633713120299035
40
-3.6373592452323003
40
-3.6373592452323003
40
-0.40442636939549298
40
-0.40442636939549298
40
-0.40442636939549298
40
-0.40442636939549298
10
-15.379262979250099
20
20.599384939450971
30
0
10
-15.476895514946827
20
25.816701144353232
30
0
10
-15.511187521212387
20
28.921678456047218
30
0
10
-15.536244019982702
20
38.474204584712183
30
0
10
-15.516542674846432
20
40.377832836543362
30
0
10
-15.401005735109795
20
49.24245322889513
30
0
0
SPLINE
5
111
100
AcDbEntity
8
0
100
AcDbSpline
70
1064
71
3
72
14
73
10
74
0
42
0.000000001
43
0.0000000001
44
0.0000000001
40
0
40
0
40
0
40
0
40
0.32936090819087216
40
0.32936090819087216
40
0.65805609592107928
40
0.65805609592107928
40
0.8723472789330402
40
0.8723472789330402
40
1.0770447523573015
40
1.0770447523573015
40
1.0770447523573015
40
1.0770447523573015
10
-9.2442685254158814
20
12.682583606748585
30
0
10
-10.303541815128126
20
12.971128165940138
30
0
10
-11.294629010178168
20
13.466299026747841
30
0
10
-13.025659838786103
20
14.813402196263672
30
0
10
-13.747997847694624
20
15.650498274288807
30
-2.2204460492503131e-15
10
-14.640634098810889
20
17.225145091009303
30
0
10
-14.911716604545553
20
17.889131597944402
30
0
10
-15.271507084472995
20
19.238774038463621
30
0
10
-15.366494838723213
20
19.917077284507634
30
0
10
-15.3792629792501
20
20.599384939450967
30
0
0
SPLINE
5
112
100
AcDbEntity
8
0
100
AcDbSpline
70
1064
71
3
72
10
73
6
74
0
42
0.000000001
43
0.0000000001
44
0.0000000001
40
-1.7111080459414081
40
-1.7111080459414081
40
-1.7111080459414081
40
-1.7111080459414081
40
-0.88320084948259703
40
-0.88320084948259703
40
-0.62407402425752878
40
-0.62407402425752878
40
-0.62407402425752878
40
-0.62407402425752878
10
0.88838088425350104
20
9.2581211356217032
30
0
10
-1.5703387938011004
20
10.35204255001096
30
0
10
-4.2546587776195697
20
11.244804568067249
30
0
10
-7.6139151451799014
20
12.231418576019735
30
0
10
-8.425315177932708
20
12.459501862931381
30
0
10
-9.2442685254158796
20
12.682583606748583
30
0
0
SPLINE
5
113
100
AcDbEntity
8
0
100
AcDbSpline
70
1064
71
3
72
8
73
4
74
0
42
0.000000001
43
0.0000000001
44
0.0000000001
40
-0.30053755457863024
40
-0.30053755457863024
40
-0.30053755457863024
40
-0.30053755457863024
40
0
40
0
40
0
40
0
10
3.5101201583305657
20
7.8752423169355321
30
0
10
2.6825842717492017
20
8.4185431891218361
30
0
10
1.8036699082651362
20
8.8508952641006395
30
2.2204460492503131e-15
10
0.88838088425350459
20
9.258121135621705
30
0
0
ENDSEC
0
SECTION
2
OBJECTS
0
DICTIONARY
5
C
100
AcDbDictionary
3
ACAD_GROUP
350
D
3
ACAD_MLINESTYLE
350
17
0
DICTIONARY
5
D
100
AcDbDictionary
0
DICTIONARY
5
1A
330
C
100
AcDbDictionary
0
DICTIONARY
5
17
100
AcDbDictionary
0
ENDSEC
0
EOF
