0
SECTION
2
HEADER
9
$INSUNITS
70
4
9
$ACADVER
1
AC1014
9
$HANDSEED
5
FFFF
0
ENDSEC
0
SECTION
2
TABLES
0
TABLE
2
VPORT
5
8
100
AcDbSymbolTable
0
ENDTAB
0
TABLE
2
LTYPE
5
5
100
AcDbSymbolTable
0
LTYPE
5
14
100
AcDbSymbolTableRecord
100
AcDbLinetypeTableRecord
2
BYBLOCK
70
0
0
LTYPE
5
15
100
AcDbSymbolTableRecord
100
AcDbLinetypeTableRecord
2
BYLAYER
70
0
0
ENDTAB
0
TABLE
2
LAYER
5
2
100
AcDbSymbolTable
70
2
0
LAYER
5
50
100
AcDbSymbolTableRecord
100
AcDbLayerTableRecord
2
0
70
0
6
CONTINUOUS
0
ENDTAB
0
TABLE
2
STYLE
5
3
100
AcDbSymbolTable
70
1
0
STYLE
5
11
100
AcDbSymbolTableRecord
100
AcDbTextStyleTableRecord
2
STANDARD
70
0
0
ENDTAB
0
TABLE
2
VIEW
5
6
100
AcDbSymbolTable
70
0
0
ENDTAB
0
TABLE
2
UCS
5
7
100
AcDbSymbolTable
70
0
0
ENDTAB
0
TABLE
2
APPID
5
9
100
AcDbSymbolTable
70
2
0
APPID
5
12
100
AcDbSymbolTableRecord
100
AcDbRegAppTableRecord
2
ACAD
70
0
0
ENDTAB
0
TABLE
2
DIMSTYLE
5
A
100
AcDbSymbolTable
70
1
0
ENDTAB
0
TABLE
2
BLOCK_RECORD
5
1
100
AcDbSymbolTable
70
1
0
BLOCK_RECORD
5
1F
100
AcDbSymbolTableRecord
100
AcDbBlockTableRecord
2
*MODEL_SPACE
0
BLOCK_RECORD
5
1B
100
AcDbSymbolTableRecord
100
AcDbBlockTableRecord
2
*PAPER_SPACE
0
ENDTAB
0
ENDSEC
0
SECTION
2
BLOCKS
0
BLOCK
5
20
100
AcDbEntity
100
AcDbBlockBegin
2
*MODEL_SPACE
0
ENDBLK
5
21
100
AcDbEntity
100
AcDbBlockEnd
0
BLOCK
5
1C
100
AcDbEntity
100
AcDbBlockBegin
2
*PAPER_SPACE
0
ENDBLK
5
1D
100
AcDbEntity
100
AcDbBlockEnd
0
ENDSEC
0
SECTION
2
ENTITIES
0
LWPOLYLINE
5
100
100
AcDbEntity
8
0
100
AcDbPolyline
90
4
70
1
43
0.0
10
-12.433640397148269
20
24.030779838562175
10
-12.433640397147894
20
-41.969220161437633
10
-40.433640397147741
20
-41.969220161437839
10
-40.433640397148103
20
24.030779838561969
0
LWPOLYLINE
5
101
100
AcDbEntity
8
0
100
AcDbPolyline
90
4
70
1
43
0.0
10
10.566359602851932
20
45.030779838562211
10
10.566359602852096
20
24.030779838562214
10
-40.433640397147911
20
24.030779838561834
10
-40.433640397148061
20
45.030779838561827
0
ELLIPSE
5
102
100
AcDbEntity
8
0
100
AcDbEllipse
10
1.7622082359589881
20
1.3676601237986303
30
0
11
-0.40501146706426194
21
10.385129953619966
31
0.0
40
0.86596543598223674
41
0
42
6.2831853071795862
0
LINE
5
103
100
AcDbEntity
8
0
100
AcDbLine
10
7.0663596028518967
20
48.530779838562175
30
1.3170594743649803e-29
11
-36.933640397148118
21
48.530779838561848
31
-1.6991761288122341e-29
0
LINE
5
104
100
AcDbEntity
8
0
100
AcDbLine
10
10.566359602851927
20
45.030779838562196
30
1.3523329803788762e-29
11
10.566359602852096
21
24.030779838562214
31
0
0
LINE
5
105
100
AcDbEntity
8
0
100
AcDbLine
10
-40.433640397148096
20
45.030779838561813
30
-2.5251040465579376e-29
11
-40.433640397147748
21
-41.969220161437811
31
-6.0062839961764717e-29
0
LINE
5
106
100
AcDbEntity
8
0
100
AcDbLine
10
-40.433640397147741
20
-41.969220161437839
30
-6.3108872417680944e-29
11
-12.433640397147894
21
-41.969220161437633
31
0
0
LINE
5
107
100
AcDbEntity
8
0
100
AcDbLine
10
-12.433640397147887
20
-41.969220161437626
30
5.565057423709064e-30
11
-12.433640397148096
21
-6.2884353715032582
31
3.3281436822786755e-29
0
LINE
5
108
100
AcDbEntity
8
0
100
AcDbLine
10
-36.933640397147713
20
-45.469220161437804
30
-4.733165431326063e-29
11
-15.933640397147865
21
-45.469220161437647
31
-1.5777218104420298e-29
0
ARC
5
109
100
AcDbEntity
8
0
100
AcDbCircle
10
-15.933640397147892
20
-41.969220161437647
30
-1.0212160680711222e-29
40
3.5000000000000053
100
AcDbArc
50
-89.999999999999588
51
0
0
ARC
5
110
100
AcDbEntity
8
0
100
AcDbCircle
10
-36.933640397147741
20
-41.969220161437796
30
-4.428562185734461e-29
40
3.5000000000000098
100
AcDbArc
50
180
51
270.00000000000045
0
ARC
5
111
100
AcDbEntity
8
0
100
AcDbCircle
10
-36.933640397148089
20
45.030779838561855
30
-2.003779374403854e-29
40
3.4999999999999964
100
AcDbArc
50
90.000000000000469
51
180
0
ARC
5
112
100
AcDbEntity
8
0
100
AcDbCircle
10
7.0663596028519224
20
45.030779838562168
30
1.0916706443018332e-29
40
3.5000000000000044
100
AcDbArc
50
0
51
90.000000000000412
0
SPLINE
5
113
100
AcDbEntity
8
0
100
AcDbSpline
70
1064
71
5
72
21
73
15
74
0
42
0.000000001
43
0.0000000001
44
0.0000000001
40
0
40
0
40
0
40
0
40
0
40
0
40
0.10000000000000001
40
0.20000000000000001
40
0.30000000000000004
40
0.40000000000000002
40
0.5
40
0.59999999999999998
40
0.69999999999999996
40
0.79999999999999993
40
0.89999999999999991
40
1
40
1
40
1
40
1
40
1
40
1
10
10.566359602852096
20
24.030779838562214
30
0
10
10.494063910772551
20
23.002639060518966
30
-5.5642383417570599e-31
10
10.256717886761502
20
21.113488746808329
30
-1.5664262567397626e-30
10
9.6223899352838274
20
18.7811140752267
30
-2.7728178236277119e-30
10
8.2018811460784082
20
16.608665939020618
30
-3.7046853125945204e-30
10
5.444872288340096
20
15.068797428241091
30
-3.470476372525544e-30
10
1.8428740102789842
20
14.170514880295954
30
-1.6443921202223108e-30
10
-2.1753992613763784
20
13.282655763311681
30
1.7016046542372635e-30
10
-5.6444125330030293
20
11.713897090749946
30
5.9005429449558447e-30
10
-8.3005604386407263
20
9.1246893889382079
30
1.0873875969277069e-29
10
-10.170793889062423
20
5.3413307112221915
30
1.6792022380861335e-29
10
-11.220687053651186
20
1.3161431343105379
30
2.2557615919153761e-29
10
-11.866674806260589
20
-2.2674023918920239
30
2.7613833092481625e-29
10
-12.252187305105497
20
-4.9064200072373332
30
3.1334013875523988e-29
10
-12.433640397148096
20
-6.2884353715032582
30
3.3281436822786755e-29
0
LINE
5
114
100
AcDbEntity
8
0
100
AcDbLine
10
-0.40132814966958608
20
24.874490475988612
30
-2.2204460492503131e-15
11
0.05482386300440116
21
13.741667405856301
31
-1.8907085721743868e-15
0
LINE
5
115
100
AcDbEntity
8
0
100
AcDbLine
10
11.56635960285219
20
20.030779838562264
30
0
11
8.8100059516047047
21
17.274426187314777
31
2.7274875804179852e-16
0
ENDSEC
0
SECTION
2
OBJECTS
0
DICTIONARY
5
C
100
AcDbDictionary
3
ACAD_GROUP
350
D
3
ACAD_MLINESTYLE
350
17
0
DICTIONARY
5
D
100
AcDbDictionary
0
DICTIONARY
5
1A
330
C
100
AcDbDictionary
0
DICTIONARY
5
17
100
AcDbDictionary
0
ENDSEC
0
EOF
